<svg width="246" height="210" viewBox="0 0 246 210" fill="none" xmlns="http://www.w3.org/2000/svg">
<text fill="#4C83C3" xml:space="preserve" style="white-space: pre" font-family="Helvetica" font-size="38" letter-spacing="-0.01em"><tspan x="75" y="166.647">I&#x2028;</tspan><tspan x="75" y="204.647">I</tspan></text>
<path d="M13.8099 137.573C13.5 137.573 13.2093 137.616 12.9449 137.702C12.6993 137.782 12.4887 137.89 12.3212 138.023C12.1659 138.145 12.0488 138.283 11.9611 138.446C11.8892 138.579 11.856 138.71 11.856 138.861C11.856 138.989 11.8816 139.093 11.9372 139.191C12.0163 139.33 12.1247 139.451 12.2699 139.561C12.4263 139.679 12.6285 139.773 12.8723 139.843C13.4353 140.002 14.1822 140.003 14.7316 139.844C14.971 139.775 15.1718 139.68 15.3289 139.561C15.4745 139.451 15.5835 139.33 15.6616 139.192C15.7175 139.094 15.7439 138.988 15.7439 138.861C15.7439 138.711 15.7103 138.579 15.6388 138.446C15.551 138.284 15.434 138.146 15.2809 138.025C15.1093 137.889 14.9006 137.78 14.6568 137.699C14.4033 137.616 14.1176 137.573 13.8099 137.573ZM13.8099 142.312C13.254 142.312 12.7235 142.24 12.2327 142.102C11.705 141.953 11.2402 141.727 10.8512 141.431C10.4539 141.13 10.1321 140.767 9.8963 140.351C9.63879 139.899 9.50805 139.397 9.50805 138.861C9.50805 138.321 9.63807 137.806 9.8945 137.332C10.1347 136.886 10.4619 136.498 10.8668 136.18C11.2503 135.876 11.7068 135.635 12.2204 135.469C13.2215 135.144 14.408 135.146 15.3936 135.47C15.9006 135.638 16.3517 135.877 16.7367 136.182C17.1391 136.5 17.4663 136.888 17.7057 137.332C17.9622 137.808 18.0918 138.323 18.0918 138.861C18.0918 139.396 17.9611 139.896 17.7039 140.35C17.4685 140.765 17.1474 141.128 16.7487 141.431C16.3597 141.726 15.9003 141.951 15.3824 142.1C14.897 142.24 14.3675 142.312 13.8099 142.312Z" fill="#4C83C3"/>
<path d="M26.795 134.589C26.3984 134.589 26.0254 134.645 25.6851 134.755C25.3623 134.86 25.0849 135.003 24.862 135.18C24.65 135.347 24.4897 135.536 24.3691 135.76C24.2658 135.952 24.2152 136.152 24.2152 136.37C24.2152 136.565 24.256 136.729 24.3445 136.883C24.4543 137.076 24.6053 137.245 24.8061 137.397C25.0152 137.556 25.2842 137.682 25.6053 137.773C26.3251 137.977 27.267 137.978 27.9652 137.776L27.9673 137.775C28.2815 137.684 28.5484 137.557 28.7594 137.397C28.9602 137.244 29.1115 137.076 29.2209 136.883C29.3087 136.729 29.3502 136.565 29.3502 136.37C29.3502 136.151 29.2997 135.951 29.1956 135.759C29.0761 135.536 28.9157 135.348 28.7052 135.182C28.4787 135.003 28.2035 134.858 27.8846 134.752C27.5563 134.644 27.1894 134.589 26.795 134.589ZM26.795 140.275C26.1485 140.275 25.5327 140.194 24.965 140.032C24.3611 139.862 23.8291 139.604 23.3856 139.266C22.9334 138.923 22.569 138.511 22.3025 138.042C22.0139 137.534 21.8673 136.971 21.8673 136.37C21.8673 135.764 22.0132 135.184 22.3014 134.647C22.5744 134.14 22.9464 133.7 23.4069 133.338C23.8465 132.989 24.3694 132.715 24.9596 132.522C26.1135 132.148 27.4895 132.149 28.6225 132.524C29.2043 132.716 29.7211 132.99 30.161 133.339C30.6208 133.702 30.9921 134.142 31.2637 134.646C31.5515 135.183 31.6978 135.762 31.6978 136.37C31.6978 136.97 31.5515 137.532 31.2633 138.042C30.9968 138.51 30.6327 138.922 30.1798 139.266C29.737 139.602 29.2115 139.859 28.6181 140.03C28.0573 140.193 27.444 140.275 26.795 140.275Z" fill="#4C83C3"/>
<path d="M41.2421 131.51C40.7422 131.51 40.2698 131.581 39.8389 131.721C39.4236 131.856 39.066 132.041 38.776 132.27C38.4976 132.491 38.2849 132.742 38.1249 133.038C37.9815 133.305 37.9121 133.581 37.9121 133.883C37.9121 134.155 37.9724 134.394 38.097 134.613C38.2451 134.873 38.4463 135.098 38.7139 135.302C38.9884 135.51 39.3376 135.676 39.7512 135.792C40.653 136.049 41.8354 136.049 42.7116 135.795L42.7131 135.794C43.1183 135.677 43.465 135.511 43.7431 135.3C44.0093 135.098 44.2112 134.872 44.3575 134.614C44.4824 134.394 44.5435 134.155 44.5435 133.883C44.5435 133.581 44.4737 133.305 44.3304 133.038C44.1711 132.742 43.9576 132.491 43.6785 132.269C43.3881 132.04 43.0331 131.854 42.6239 131.718C42.206 131.58 41.7401 131.51 41.2421 131.51ZM41.2421 138.333C40.4858 138.333 39.7689 138.238 39.1101 138.051C38.4149 137.854 37.8031 137.558 37.2942 137.172C36.7737 136.777 36.3573 136.306 36.055 135.772C35.73 135.2 35.5642 134.563 35.5642 133.883C35.5642 133.193 35.73 132.534 36.0572 131.926C36.3678 131.349 36.7932 130.845 37.3205 130.428C37.8283 130.027 38.4311 129.711 39.1123 129.488C40.4486 129.054 42.0482 129.055 43.3628 129.49C44.0335 129.712 44.6294 130.028 45.135 130.428C45.6634 130.846 46.0881 131.35 46.398 131.926C46.7252 132.534 46.8914 133.193 46.8914 133.883C46.8914 134.561 46.7263 135.196 46.4006 135.772C46.0983 136.305 45.6818 136.775 45.1628 137.17C44.6518 137.557 44.0472 137.853 43.3635 138.05C42.7138 138.238 41.9998 138.333 41.2421 138.333Z" fill="#4C83C3"/>
<path d="M49.2375 93.3593C48.884 93.711 48.3466 93.8013 47.898 93.5835C47.4491 93.3668 47.1865 92.889 47.2432 92.3939C47.3985 91.0362 47.0471 90.1109 46.1695 89.5638C44.5467 88.5558 41.2389 88.9476 38.9455 90.4212C38.1217 90.9514 36.7676 92.0544 36.9544 93.4943C37.0374 94.1372 36.5838 94.7259 35.9409 94.8093C35.2981 94.8902 34.709 94.4399 34.6256 93.7963C34.0488 89.3381 31.6514 87.9382 29.7416 87.5489C26.5886 86.9049 22.8267 88.6016 21.178 91.4101C19.7785 93.7927 20.2292 96.5267 22.4468 99.1072C22.7159 99.4207 22.8007 99.8526 22.67 100.244C22.5396 100.636 22.2124 100.931 21.809 101.019C13.5149 102.845 10.9134 106.749 11.2446 109.793C11.6357 113.391 16.2749 117.217 24.1016 117.217C24.4151 117.217 24.7156 117.342 24.9363 117.565C25.1566 117.788 25.2787 118.09 25.2754 118.403C25.2581 119.97 25.7738 121.199 26.4853 122.15H61.6587C66.7612 122.15 70.9359 117.976 70.9359 112.873V91.9951C65.3555 87.4329 56.2401 86.3899 49.2375 93.3593Z" fill="#4C83C3"/>
<path d="M8.91026 110.046C8.49637 106.241 11.1332 101.513 19.5631 99.1589C17.6779 96.1988 17.5114 93.0166 19.1532 90.2208C21.3148 86.5413 26.072 84.4029 30.2106 85.2483C32.8124 85.7785 34.7992 87.4186 35.9527 89.9016C36.4172 89.3746 36.994 88.8842 37.6755 88.4464C40.3326 86.7381 44.6463 85.8504 47.4099 87.5703C48.3732 88.1705 49.0366 89.0337 49.3718 90.0948C56.4697 84.4227 64.9964 85.1533 70.9358 89.0843V75.2102C70.9358 70.1076 66.7611 65.9326 61.6586 65.9326H9.27721C4.17469 65.9326 0 70.1076 0 75.2102V112.873C0 117.976 4.17469 122.15 9.27721 122.15H23.7523C23.3644 121.336 23.096 120.467 22.9881 119.541C14.379 119.175 9.40398 114.584 8.91026 110.046Z" fill="#4C83C3"/>
<path d="M75.2523 107.186C79.6964 101.571 77.6832 95.1692 73.5237 91.1531C72.7357 90.3921 71.8665 89.7 70.9358 89.0843L70.9359 91.9951C71.2674 92.266 71.5879 92.5475 71.8931 92.8423C75.184 96.0205 77.3925 101.492 72.7859 106.456C72.5692 106.689 72.4565 107.001 72.4742 107.319C72.4915 107.637 72.6374 107.934 72.878 108.143C76.3556 111.153 76.5546 116.965 73.3403 121.663C69.1136 127.841 59.1545 131.563 43.8776 123.48C43.705 123.389 43.5165 123.344 43.3287 123.344C43.0773 123.344 42.8266 123.425 42.6182 123.583C39.2013 126.179 33.5079 126.571 29.3758 124.494C28.5238 124.065 27.3568 123.316 26.4853 122.15L23.7523 122.15C24.6223 123.978 26.1615 125.505 28.3212 126.59C32.9607 128.924 39.3006 128.596 43.4204 125.889C49.7675 129.147 55.2842 130.476 59.9371 130.476C67.2236 130.475 72.3871 127.214 75.2783 122.989C78.9025 117.691 78.8263 111.123 75.2523 107.186Z" fill="#4C83C3"/>
<path d="M115.066 83.284C115.445 83.4465 115.728 83.8066 115.779 84.2168L117.039 94.4956H121.48V82.4042C121.48 82.0426 121.648 81.7013 121.935 81.4814L124.018 79.8865L117.838 78.0511C117.372 77.9127 117.041 77.4978 117.009 77.0124C116.978 76.5262 117.253 76.0719 117.698 75.8751L123.577 73.2678L118.422 71.7578C118.038 71.6447 117.738 71.3421 117.63 70.9549C117.522 70.5688 117.62 70.1539 117.892 69.8577L121.48 65.9329H103.166C103.459 73.5109 108.056 80.2672 115.066 83.284Z" fill="#FDBA12"/>
<path d="M127.276 71.9288C127.743 72.0664 128.076 72.4807 128.108 72.9676C128.141 73.4537 127.866 73.9091 127.42 74.1067L121.524 76.7215L126.866 78.3081C127.285 78.4323 127.599 78.7816 127.678 79.211C127.757 79.6411 127.589 80.0789 127.242 80.345L123.804 82.9779V94.4954H128.662L129.91 84.2478C129.96 83.8368 130.227 83.4583 130.608 83.2957C137.635 80.2836 142.242 73.523 142.535 65.9328H124.63L120.864 70.0512L127.276 71.9288Z" fill="#FDBA12"/>
<path d="M129.842 101.795H115.859C115.217 101.795 114.697 101.275 114.697 100.633C114.697 99.9909 115.217 99.4709 115.859 99.4709H129.842C130.484 99.4709 131.004 99.9909 131.004 100.633C131.004 101.275 130.484 101.795 129.842 101.795ZM129.842 106.289H115.859C115.217 106.289 114.697 105.769 114.697 105.127C114.697 104.485 115.217 103.965 115.859 103.965H129.842C130.484 103.965 131.004 104.485 131.004 105.127C131.004 105.769 130.484 106.289 129.842 106.289ZM129.842 110.783H115.859C115.217 110.783 114.697 110.263 114.697 109.621C114.697 108.979 115.217 108.459 115.859 108.459H129.842C130.484 108.459 131.004 108.979 131.004 109.621C131.004 110.263 130.484 110.783 129.842 110.783ZM125.349 115.277H120.353C119.711 115.277 119.191 114.757 119.191 114.115C119.191 113.473 119.711 112.953 120.353 112.953H125.349C125.991 112.953 126.511 113.473 126.511 114.115C126.511 114.757 125.991 115.277 125.349 115.277ZM149.129 65.9329H144.861C144.574 74.2302 139.676 81.6525 132.141 85.1558L130.845 95.7989C130.773 96.3818 130.279 96.8203 129.691 96.8203H116.01C115.423 96.8203 114.928 96.3826 114.857 95.7996L113.551 85.15C106.009 81.625 101.127 74.2114 100.841 65.9329H96.7478C91.6453 65.9329 87.4702 70.1075 87.4702 75.2101V112.873C87.4702 117.976 91.6453 122.15 96.7478 122.15H149.129C154.231 122.15 158.406 117.976 158.406 112.873V75.2101C158.406 70.1075 154.231 65.9329 149.129 65.9329Z" fill="#FDBA12"/>
<path d="M1.27709 147.68H4.61966V167.046H1.27709V147.68ZM1.27709 147.68H4.61966V167.046H1.27709V147.68ZM2.91208 144.283C2.51227 144.283 2.13991 144.235 1.795 144.138C1.44972 144.042 1.15574 143.901 0.914118 143.72C0.671416 143.539 0.480722 143.327 0.341674 143.084C0.202265 142.842 0.132923 142.576 0.132923 142.285C0.132923 141.982 0.205155 141.698 0.350704 141.431C0.495892 141.165 0.692726 140.935 0.941207 140.741C1.18933 140.547 1.48295 140.395 1.82245 140.286C2.16086 140.178 2.52455 140.123 2.91208 140.123C3.29997 140.123 3.66004 140.178 3.99304 140.286C4.32639 140.395 4.61677 140.547 4.86525 140.741C5.11337 140.935 5.3102 141.165 5.45539 141.431C5.60094 141.698 5.67353 141.982 5.67353 142.285C5.67353 142.576 5.60347 142.842 5.46478 143.084C5.32501 143.327 5.13468 143.539 4.89234 143.72C4.65 143.901 4.35926 144.042 4.02013 144.138C3.68135 144.235 3.31188 144.283 2.91208 144.283Z" fill="#4C83C3"/>
<path d="M24.8756 154.129H21.6963C21.5027 152.925 21.0607 151.925 20.3705 151.128C19.6799 150.332 18.5719 149.933 17.046 149.933C14.9624 149.933 13.473 150.952 12.5773 152.989C11.9955 154.311 11.7051 155.942 11.7051 157.881C11.7051 159.834 12.1165 161.477 12.9403 162.811C13.7637 164.144 15.0596 164.811 16.8282 164.811C18.1844 164.811 19.2588 164.397 20.0527 163.567C20.8458 162.738 21.3937 161.602 21.6963 160.161H24.8756C24.5127 162.74 23.604 164.627 22.151 165.819C20.6977 167.013 18.8384 167.609 16.5739 167.609C14.0303 167.609 12.0016 166.68 10.4876 164.821C8.97361 162.961 8.21698 160.639 8.21698 157.854C8.21698 154.438 9.04657 151.779 10.7058 149.879C12.3649 147.977 14.4781 147.026 17.046 147.026C19.2379 147.026 21.0213 147.559 22.3959 148.625C23.7705 149.691 24.5972 151.525 24.8756 154.129Z" fill="#4C83C3"/>
<path d="M41.6799 157.2C41.6799 155.649 41.4556 154.317 41.0077 153.203C40.1597 151.059 38.61 149.988 36.357 149.988C34.0922 149.988 32.5421 151.12 31.7063 153.385C31.2581 154.596 31.0342 156.134 31.0342 157.999C31.0342 159.501 31.2581 160.778 31.7063 161.832C32.554 163.842 34.1041 164.848 36.357 164.848C37.8833 164.848 39.1513 164.209 40.163 162.931C41.1742 161.654 41.6799 159.743 41.6799 157.2ZM27.8914 147.68H31.0707V150.26C31.7247 149.376 32.4391 148.691 33.2142 148.207C34.3161 147.481 35.6119 147.117 37.1021 147.117C39.3063 147.117 41.1771 147.962 42.7153 149.651C44.2531 151.341 45.0224 153.754 45.0224 156.891C45.0224 161.129 43.9144 164.158 41.6983 165.974C40.293 167.124 38.658 167.7 36.7933 167.7C35.3273 167.7 34.0983 167.379 33.1055 166.737C32.524 166.374 31.8761 165.75 31.1613 164.866V174.803H27.8914V147.68Z" fill="#4C83C3"/>
<path d="M64.1698 154.129H60.9905C60.7969 152.925 60.3549 151.925 59.6647 151.128C58.9741 150.332 57.8661 149.933 56.3402 149.933C54.2566 149.933 52.7672 150.952 51.8715 152.989C51.2897 154.311 50.9993 155.942 50.9993 157.881C50.9993 159.834 51.4107 161.477 52.2345 162.811C53.0579 164.144 54.3538 164.811 56.1224 164.811C57.4786 164.811 58.553 164.397 59.3469 163.567C60.14 162.738 60.6879 161.602 60.9905 160.161H64.1698C63.8069 162.74 62.8982 164.627 61.4452 165.819C59.9919 167.013 58.1326 167.609 55.8681 167.609C53.3245 167.609 51.2958 166.68 49.7818 164.821C48.2678 162.961 47.5112 160.639 47.5112 157.854C47.5112 154.438 48.3408 151.779 49.9999 149.879C51.6591 147.977 53.7723 147.026 56.3402 147.026C58.5321 147.026 60.3155 147.559 61.6901 148.625C63.0647 149.691 63.8914 151.525 64.1698 154.129Z" fill="#4C83C3"/>
<path d="M101.598 57.2528C101.444 57.2528 101.287 57.2228 101.136 57.1604L88.5543 51.9484C88.0891 51.7559 87.8081 51.3063 87.8085 50.8321C87.8085 50.6786 87.8381 50.5218 87.9006 50.3708C88.1559 49.754 88.862 49.4629 89.4785 49.7171L102.06 54.9291C102.526 55.1216 102.807 55.5712 102.806 56.0454C102.806 56.1989 102.777 56.3557 102.714 56.5067C102.522 56.9718 102.072 57.2528 101.598 57.2528Z" fill="#FDBA12"/>
<path d="M106.584 49.7906C106.276 49.7906 105.966 49.6729 105.731 49.437L96.2462 39.9529C96.0103 39.717 95.8922 39.4086 95.8922 39.0991C95.8922 38.7899 96.0103 38.4815 96.2462 38.2453C96.7171 37.7736 97.4828 37.7736 97.9537 38.2453L107.438 47.7294C107.674 47.9656 107.792 48.2741 107.792 48.5832C107.792 48.8927 107.674 49.2012 107.438 49.437C107.203 49.6729 106.893 49.7906 106.584 49.7906Z" fill="#FDBA12"/>
<path d="M114.046 44.8064C113.572 44.8064 113.123 44.5254 112.93 44.0603L107.836 31.7623C107.774 31.6113 107.744 31.4546 107.744 31.3011C107.744 30.8265 108.025 30.3772 108.49 30.1847C109.105 29.9287 109.812 30.2212 110.068 30.8384L115.162 43.1364C115.224 43.2874 115.254 43.4441 115.254 43.5976C115.254 44.0718 114.973 44.5211 114.508 44.714C114.357 44.7765 114.2 44.8064 114.046 44.8064Z" fill="#FDBA12"/>
<path d="M122.847 43.0546C122.18 43.0546 121.64 42.5143 121.64 41.8472V28.5496C121.64 27.8825 122.18 27.3422 122.847 27.3422C123.515 27.3422 124.055 27.8825 124.055 28.5496V41.8472C124.055 42.5143 123.515 43.0546 122.847 43.0546Z" fill="#FDBA12"/>
<path d="M131.648 44.8064C131.494 44.8064 131.338 44.7765 131.187 44.714C130.722 44.5211 130.441 44.0718 130.441 43.5976C130.441 43.4441 130.471 43.2874 130.533 43.1364L135.658 30.7626C135.914 30.1472 136.62 29.8528 137.236 30.1089C137.701 30.3014 137.982 30.7507 137.982 31.2252C137.982 31.3787 137.952 31.5355 137.89 31.6861L132.764 44.0603C132.572 44.5254 132.122 44.8064 131.648 44.8064Z" fill="#FDBA12"/>
<path d="M139.11 49.7906C138.801 49.7906 138.492 49.6729 138.256 49.437C138.02 49.2012 137.903 48.8927 137.903 48.5832C137.903 48.2741 138.02 47.9656 138.256 47.7294L147.85 38.1362C148.322 37.6642 149.085 37.6642 149.557 38.1362C149.793 38.372 149.911 38.6805 149.911 38.99C149.911 39.2992 149.793 39.6079 149.557 39.8438L139.964 49.437C139.728 49.6729 139.419 49.7906 139.11 49.7906Z" fill="#FDBA12"/>
<path d="M144.097 57.2537C143.622 57.2537 143.173 56.9728 142.981 56.5076C142.918 56.3566 142.888 56.1999 142.888 56.0464C142.888 55.5722 143.169 55.1225 143.634 54.93L156.405 49.6397C157.024 49.384 157.727 49.6773 157.983 50.2934C158.045 50.4444 158.075 50.6004 158.075 50.7546C158.075 51.2288 157.794 51.6785 157.329 51.871L144.558 57.1613C144.407 57.2238 144.25 57.2537 144.097 57.2537Z" fill="#FDBA12"/>
<path d="M236.598 65.9397H214.989C216.204 67.0409 217.538 68.0338 218.845 68.8601C218.848 68.8615 218.922 68.9092 218.926 68.9118C228.248 74.9381 232.613 81.6392 231.898 88.8296C231.061 97.2624 223.339 106.023 208.946 114.871C204.101 117.848 199.279 120.333 195.465 122.157H236.598C241.7 122.157 245.875 117.983 245.875 112.88V75.2169C245.875 70.1144 241.7 65.9397 236.598 65.9397Z" fill="#B22C1B"/>
<path d="M229.562 88.5961C230.182 82.353 226.174 76.3931 217.652 70.8828C216.445 70.1201 213.879 68.3543 211.686 65.9396H184.217C179.114 65.9396 174.939 70.1143 174.939 75.2168V112.88C174.939 117.983 179.114 122.157 184.217 122.157H189.829C199.161 118.052 228.019 104.147 229.562 88.5961Z" fill="#B22C1B"/>
<path d="M211.848 49.4281C211.837 49.4317 211.83 49.4408 211.82 49.4447C211.69 49.4935 211.574 49.5636 211.471 49.6517C211.458 49.6625 211.445 49.6715 211.433 49.6827C211.323 49.7853 211.233 49.9056 211.168 50.0435L211.167 50.0461C211.166 50.0482 211.166 50.0508 211.165 50.0533C211.13 50.1295 211.097 50.2064 211.079 50.2902C211.066 50.3531 211.068 50.4159 211.065 50.4787C211.064 50.4917 211.062 50.504 211.062 50.5174C211.06 50.6712 211.084 50.8208 211.14 50.962L211.14 50.9649L213.326 56.5542H204.893L207.079 50.9649C207.081 50.958 207.08 50.9504 207.082 50.9439C207.131 50.8139 207.153 50.6767 207.153 50.5362C207.153 50.5066 207.149 50.4787 207.147 50.4491C207.143 50.3953 207.146 50.3415 207.135 50.2877C207.119 50.2173 207.089 50.153 207.062 50.088C207.056 50.0742 207.058 50.0591 207.052 50.0461C207.049 50.0403 207.044 50.037 207.041 50.0313C206.979 49.9009 206.893 49.7868 206.79 49.6882C206.773 49.6726 206.755 49.6607 206.738 49.6459C206.638 49.561 206.525 49.4928 206.399 49.4451C206.389 49.4411 206.382 49.4317 206.371 49.4281C196.603 46.0357 188.53 34.4969 187.991 23.1603C187.724 17.5074 189.494 12.5147 193.111 8.72102C197.032 4.60989 202.706 2.3454 209.129 2.3454C215.512 2.3454 221.187 4.60989 225.108 8.72102C228.725 12.5147 230.495 17.5074 230.227 23.1603C229.689 34.4969 221.615 46.0357 211.848 49.4281ZM222.122 52.1845C222.351 52.6241 222.127 52.9332 221.9 53.1167C221.121 53.7455 218.677 54.0572 214.79 51.1216C219.263 50.2512 221.61 51.1949 222.122 52.1845ZM196.315 53.1225C196.088 52.9408 195.865 52.6306 196.092 52.1914C196.463 51.4752 197.795 50.7814 200.197 50.7814C201.115 50.7814 202.188 50.8822 203.424 51.1216C199.54 54.0572 197.097 53.7527 196.315 53.1225ZM232.574 23.2748C232.874 16.9646 230.88 11.3727 226.809 7.10372C222.44 2.52309 216.162 0 209.091 0C202.06 0 195.782 2.52309 191.413 7.10372C187.342 11.3727 185.348 16.9646 185.648 23.2748C186.113 33.058 191.826 42.9788 199.524 48.4461C196.495 48.5917 194.723 49.7355 194.01 51.114C193.316 52.4532 193.653 53.9965 194.846 54.9561C195.537 55.5105 196.54 55.8774 197.806 55.8774C199.316 55.8774 201.202 55.3494 203.373 54.0005L202.082 57.3033C201.94 57.6652 201.987 58.0729 202.205 58.3929C202.424 58.7133 202.787 58.9051 203.175 58.9051H208.026C208.322 61.2197 209.576 63.6078 211.686 65.9412H214.994C213.07 64.2051 210.869 61.6795 210.393 58.9051H215.047C215.435 58.9051 215.798 58.7133 216.017 58.3929C216.235 58.0729 216.282 57.6652 216.14 57.3033L214.849 54.0023C217.017 55.3458 218.9 55.8724 220.409 55.8724C221.677 55.8724 222.683 55.5047 223.375 54.9478C224.568 53.9882 224.903 52.4442 224.209 51.1057C223.494 49.729 221.725 48.5873 218.705 48.4418C226.399 42.9734 232.109 33.0555 232.574 23.2748Z" fill="#B22C1B"/>
<path d="M6.87371 1.05505C3.64805 1.05505 1.05548 3.67786 1.05548 6.87338V15.7063C1.05548 18.9018 3.67819 21.5245 6.87371 21.5245H98.127C101.322 21.5245 103.945 18.9319 103.945 15.7063V6.87338C103.945 3.67786 101.322 1.05505 98.127 1.05505H6.87371ZM98.127 22.5796H6.87371C3.07527 22.5796 0.000244141 19.5047 0.000244141 15.7063V6.87338C0.000244141 3.07493 3.07527 0 6.87371 0H98.127C101.925 0 105 3.07493 105 6.87338V15.7063C105 19.5047 101.925 22.5796 98.127 22.5796Z" fill="#4C83C3"/>
<path d="M8.5919 14.7113H9.79764V7.80773H8.5919V14.7113ZM9.58678 6.54154C9.58678 6.54154 9.79773 6.45113 9.88817 6.39084C9.97861 6.33055 10.0389 6.24006 10.0992 6.14962C10.1595 6.05918 10.1896 5.96881 10.1896 5.84823C10.1896 5.72764 10.1595 5.63718 10.0992 5.54674C10.0389 5.45631 9.97861 5.36581 9.88817 5.30552C9.79773 5.24523 9.70737 5.18497 9.58678 5.15483C9.46619 5.12468 9.34559 5.09457 9.19486 5.09457C9.04413 5.09457 8.92353 5.09453 8.80294 5.15483C8.68236 5.18497 8.56166 5.24523 8.50137 5.30552C8.41093 5.36581 8.35062 5.45631 8.29032 5.54674C8.23003 5.63718 8.19998 5.75779 8.19998 5.84823C8.19998 5.93867 8.19988 6.05918 8.29032 6.14962C8.35062 6.24006 8.41093 6.3004 8.50137 6.39084C8.59181 6.45113 8.68236 6.51139 8.80294 6.54154C8.92353 6.57168 9.07428 6.60189 9.19486 6.60189C9.31545 6.60189 9.46619 6.60183 9.58678 6.54154ZM8.5919 14.7113H9.79764V7.80773H8.5919V14.7113ZM16.1285 8.13929C15.6462 7.74739 15.0131 7.5665 14.2293 7.5665C13.3249 7.5665 12.5712 7.8981 11.9683 8.59147C11.3654 9.25469 11.0941 10.2194 11.0941 11.4252C11.0941 12.4201 11.3653 13.234 11.9079 13.8973C12.4506 14.5605 13.1742 14.8922 14.0786 14.8922C14.8925 14.8922 15.5557 14.6811 16.0681 14.259C16.5806 13.837 16.9123 13.1436 17.0329 12.2393H15.8873C15.7667 12.7517 15.5858 13.1738 15.2843 13.4451C15.013 13.7466 14.6211 13.8973 14.1387 13.8973C13.5057 13.8973 13.0536 13.6561 12.7521 13.1738C12.4507 12.6914 12.2998 12.1186 12.2998 11.4252C12.2998 10.7319 12.3904 10.1591 12.6014 9.67679C12.933 8.95327 13.4454 8.59147 14.1991 8.59147C14.7417 8.59147 15.1337 8.74225 15.3748 9.01356C15.616 9.28488 15.7667 9.64659 15.8571 10.0988H17.0027C16.9122 9.16425 16.6108 8.53119 16.1285 8.13929ZM22.4592 13.2642C22.0974 13.7164 21.6452 13.9576 21.1025 13.9576C20.2886 13.9576 19.746 13.5958 19.4445 12.8723C19.2938 12.5105 19.2035 12.0282 19.2035 11.5157C19.2035 10.8525 19.2938 10.3099 19.4445 9.85766C19.746 9.04371 20.2886 8.65182 21.1025 8.65182C21.9165 8.65182 22.4593 9.04374 22.7607 9.7974C22.9115 10.1893 23.0018 10.6716 23.0018 11.2143C23.0018 12.1187 22.8209 12.812 22.4592 13.2642ZM18.0879 17.4847H19.2637V13.9274C19.5048 14.2289 19.7461 14.4701 19.9572 14.5907C20.3189 14.8318 20.741 14.9222 21.2836 14.9222C21.9468 14.9222 22.5195 14.7113 23.032 14.3194C23.8158 13.6561 24.2077 12.601 24.2077 11.0635C24.2077 9.94808 23.9363 9.07388 23.3937 8.47095C22.8511 7.86802 22.1879 7.5665 21.3739 7.5665C20.8313 7.5665 20.379 7.6871 19.9871 7.95842C19.7158 8.1393 19.4747 8.38053 19.2335 8.682V7.74737H18.0879V17.4847ZM30.1465 8.13929C29.6641 7.74739 29.0312 7.5665 28.2474 7.5665C27.3129 7.5665 26.5592 7.8981 25.9864 8.59147C25.3835 9.25469 25.1121 10.2194 25.1121 11.4252C25.1121 12.4201 25.3834 13.234 25.9261 13.8973C26.4687 14.5605 27.1921 14.8922 28.0965 14.8922C28.9105 14.8922 29.5738 14.6811 30.0863 14.259C30.5988 13.837 30.9304 13.1436 31.051 12.2393H29.9054C29.7848 12.7517 29.6039 13.1738 29.3025 13.4451C29.0311 13.7466 28.6392 13.8973 28.1569 13.8973C27.5238 13.8973 27.0716 13.6561 26.7701 13.1738C26.4686 12.6914 26.318 12.1186 26.318 11.4252C26.318 10.7319 26.4385 10.1591 26.6194 9.67679C26.951 8.95327 27.4636 8.59147 28.2172 8.59147C28.7599 8.59147 29.1516 8.74225 29.3928 9.01356C29.634 9.28488 29.7848 9.64659 29.8753 10.0988H31.0208C30.9304 9.16425 30.6288 8.53119 30.1465 8.13929ZM33.553 14.7113C33.553 14.7113 33.7642 14.6208 33.8546 14.5605C33.945 14.5002 34.0054 14.4098 34.0657 14.3194C34.1259 14.2289 34.1258 14.1385 34.1258 14.0179C34.1258 13.8973 34.1259 13.8068 34.0355 13.7164C33.9752 13.626 33.9149 13.5356 33.8244 13.4753C33.734 13.415 33.6436 13.3546 33.523 13.3245C33.4025 13.2943 33.2819 13.2642 33.1311 13.2642C32.9804 13.2642 32.8598 13.2642 32.7392 13.3245C32.6186 13.3546 32.5281 13.415 32.4376 13.4753C32.3472 13.5356 32.2869 13.626 32.2266 13.7164C32.1663 13.8068 32.1362 13.9274 32.1362 14.0179C32.1362 14.1083 32.1361 14.2289 32.2266 14.3194C32.2869 14.4098 32.3472 14.4701 32.4376 14.5605C32.5281 14.6208 32.6186 14.6811 32.7694 14.7113C32.89 14.7414 33.0104 14.7715 33.1611 14.7715C33.3118 14.7715 33.4324 14.7716 33.553 14.7113ZM36.2059 6.72241V7.80773H35.2412V8.74226H36.2059V14.7414H37.3515V8.74226H38.5273V7.80773H37.3817C37.3817 7.05407 37.4119 6.60189 37.4722 6.42102C37.5325 6.24014 37.7434 6.14962 38.1052 6.14962C38.1655 6.14962 38.1956 6.14962 38.2559 6.14962C38.3162 6.14962 38.4067 6.14962 38.5273 6.14962V5.09457C38.5273 5.09457 38.3463 5.09457 38.2559 5.09457C38.1654 5.09457 38.1053 5.09457 38.0148 5.09457C37.231 5.09457 36.7185 5.30554 36.4472 5.69744C36.2964 5.90846 36.2059 6.27024 36.2059 6.75258M43.9536 13.0833C43.6521 13.6561 43.1397 13.9576 42.3559 13.9576C41.6625 13.9576 41.1199 13.7164 40.8184 13.234C40.4868 12.7517 40.336 12.1187 40.336 11.3952C40.336 10.6716 40.4868 9.97829 40.8184 9.43566C41.15 8.89302 41.6626 8.62165 42.3861 8.62165C43.2 8.62165 43.7425 8.95328 44.1043 9.58635C44.3153 10.0084 44.4058 10.5209 44.4058 11.1539C44.4058 11.8774 44.2551 12.5105 43.9838 13.1134M44.6771 8.47095C44.0741 7.86802 43.2903 7.5665 42.4161 7.5665C41.4213 7.5665 40.6074 7.89813 40.0346 8.62165C39.4317 9.31501 39.1604 10.2496 39.1604 11.3952C39.1604 12.4804 39.4316 13.3546 40.0044 13.9877C40.5772 14.6208 41.3309 14.9524 42.2956 14.9524C43.4411 14.9524 44.2853 14.5906 44.8279 13.8671C45.3706 13.1436 45.6418 12.2091 45.6418 11.0937C45.6418 9.97826 45.3403 9.07388 44.7072 8.47095M46.9682 7.77755V12.5106C46.9682 13.1135 47.0588 13.5657 47.2698 13.9274C47.6316 14.5907 48.2947 14.9222 49.2896 14.9222C49.9226 14.9222 50.4652 14.7414 50.9174 14.3796C51.1586 14.1987 51.3394 13.9877 51.4902 13.7164V14.7414H52.5754V7.80773H51.3998V11.2143C51.3998 11.9077 51.3093 12.4201 51.1586 12.812C50.8572 13.5356 50.3146 13.8973 49.5006 13.8973C48.9278 13.8973 48.5359 13.6863 48.3248 13.2642C48.2043 13.0532 48.144 12.7517 48.144 12.3899V7.77755H46.938H46.9682ZM54.3541 14.7113H55.5299V11.0635C55.5299 10.6113 55.5298 10.2495 55.6202 10.0084C55.6805 9.76718 55.8011 9.52604 56.0121 9.28487C56.2533 8.98341 56.5247 8.80252 56.8563 8.71208C57.0372 8.65179 57.2482 8.62165 57.5496 8.62165C58.0923 8.62165 58.4842 8.83264 58.665 9.25469C58.7856 9.52601 58.8459 9.8577 58.8459 10.2798V14.6509H60.0518V10.1893C60.0518 9.49595 59.9613 8.95329 59.7804 8.56139C59.4488 7.86802 58.7555 7.53642 57.7909 7.53642C57.3387 7.53642 56.9165 7.62685 56.5548 7.80773C56.193 7.9886 55.8313 8.29009 55.4997 8.682V7.68711H54.3843V14.6208L54.3541 14.7113ZM62.976 13.204C62.6443 12.6915 62.4937 12.0885 62.4937 11.3348C62.4937 10.4606 62.6746 9.79733 63.0363 9.34513C63.3981 8.89293 63.8803 8.682 64.4531 8.682C64.9656 8.682 65.4178 8.893 65.7795 9.31505C66.1413 9.7371 66.3222 10.4003 66.3222 11.2745C66.3222 12.1488 66.1413 12.812 65.8097 13.2642C65.448 13.7164 65.0259 13.9576 64.4833 13.9576C63.7899 13.9576 63.2774 13.7164 62.976 13.204ZM64.2422 7.65694C63.2776 7.65694 62.5539 8.01877 62.0414 8.77243C61.5289 9.52609 61.2576 10.4003 61.2576 11.3952C61.2576 12.4804 61.529 13.3546 62.1018 13.9877C62.6746 14.6509 63.3377 14.9524 64.1215 14.9524C64.6039 14.9524 65.0259 14.862 65.3876 14.6509C65.7494 14.47 66.081 14.1384 66.3523 13.7164V14.6811H67.4076V5.12465H66.2922V8.62165C66.0209 8.29003 65.7795 8.07907 65.5685 7.92834C65.2067 7.71731 64.7547 7.59668 64.2422 7.59668M70.4222 13.6862C70.181 13.4752 70.0605 13.2341 70.0605 12.8723C70.0605 12.4201 70.2413 12.0885 70.6031 11.9076C70.8141 11.787 71.1156 11.6966 71.5678 11.6363L72.2611 11.5459C72.4721 11.5459 72.7132 11.4855 72.9242 11.4252C73.1353 11.3649 73.3464 11.2745 73.467 11.1841V12.1186C73.467 12.8422 73.1354 13.3547 72.5023 13.6561C72.1104 13.837 71.7184 13.9274 71.2964 13.9274C70.9648 13.9274 70.6634 13.837 70.4222 13.626M70.995 10.762C70.3318 10.8525 69.8192 11.0635 69.4273 11.4252C69.0354 11.787 68.8244 12.2693 68.8244 12.9326C68.8244 13.5355 69.0354 14.0179 69.4273 14.4098C69.8192 14.8017 70.3619 15.0127 70.995 15.0127C71.5376 15.0127 72.02 14.8921 72.4721 14.6811C72.9243 14.4399 73.2559 14.1686 73.497 13.8671C73.5272 14.1384 73.5875 14.3495 73.7081 14.5002C73.8889 14.7715 74.1905 14.9222 74.5824 14.9222C74.7332 14.9222 74.8839 14.9222 74.9744 14.9222C75.0648 14.9222 75.2154 14.8921 75.3963 14.8318V13.9576C75.3963 13.9576 75.2455 13.9576 75.1852 13.9576C75.1249 13.9576 75.0646 13.9576 75.0043 13.9576C74.8536 13.9576 74.7331 13.9274 74.703 13.837C74.6427 13.7767 74.6124 13.6561 74.6124 13.5355V9.52609C74.6124 8.86287 74.3713 8.3805 73.8588 8.07903C73.3463 7.77757 72.6831 7.62685 71.8692 7.62685C71.1758 7.62685 70.5428 7.77753 70.0001 8.13929C69.4575 8.4709 69.1861 9.07382 69.1559 9.91792H70.2413C70.2715 9.55616 70.3618 9.28488 70.5126 9.104C70.7537 8.77239 71.2059 8.62165 71.8088 8.62165C72.3213 8.62165 72.7434 8.71207 73.0148 8.89295C73.2861 9.07383 73.4369 9.34517 73.4369 9.76722C73.4369 9.9481 73.4368 10.0988 73.3463 10.2194C73.2559 10.4003 73.075 10.5209 72.8037 10.5511L70.9347 10.7922L70.995 10.762ZM75.8184 7.77755V8.74226H76.7529V13.3245C76.7529 13.7767 76.8434 14.1385 77.0545 14.4098C77.2655 14.6811 77.6272 14.8318 78.1699 14.8318C78.3507 14.8318 78.5014 14.8318 78.6521 14.8318C78.8029 14.8318 78.9235 14.7715 79.0742 14.7414V13.8068C79.0742 13.8068 78.9234 13.8068 78.833 13.8068C78.7727 13.8068 78.7124 13.8068 78.6521 13.8068C78.4411 13.8068 78.2903 13.8069 78.1999 13.7466C78.0491 13.6561 77.9588 13.5054 77.9588 13.2642V8.74226H79.0742V7.77755H77.9588V5.84823H76.7831V7.77755H75.8184ZM80.2198 14.7113H81.4255V7.80773H80.2198V14.7113ZM81.1845 6.54154C81.1845 6.54154 81.4256 6.45113 81.4859 6.39084C81.5763 6.33055 81.6367 6.24006 81.6969 6.14962C81.7572 6.05918 81.7873 5.96881 81.7873 5.84823C81.7873 5.72764 81.7874 5.63718 81.6969 5.54674C81.6367 5.45631 81.5763 5.36581 81.4859 5.30552C81.3955 5.24523 81.3051 5.18497 81.1845 5.15483C81.0639 5.12468 80.9433 5.09457 80.7926 5.09457C80.6419 5.09457 80.5213 5.09453 80.4007 5.15483C80.2801 5.18497 80.1594 5.24523 80.0991 5.30552C80.0087 5.36581 79.9483 5.45631 79.888 5.54674C79.8278 5.63718 79.7977 5.75779 79.7977 5.84823C79.7977 5.93867 79.7978 6.05918 79.8581 6.14962C79.9183 6.24006 79.9787 6.3004 80.0691 6.39084C80.1595 6.45113 80.2499 6.51139 80.3705 6.54154C80.4911 6.57168 80.6117 6.60189 80.7624 6.60189C80.9131 6.60189 81.0337 6.60183 81.1543 6.54154M80.2198 14.7113H81.4255V7.80773H80.2198V14.7113ZM87.5152 13.0833C87.2137 13.6561 86.7011 13.9576 85.9173 13.9576C85.224 13.9576 84.6815 13.7164 84.38 13.234C84.0484 12.7517 83.8976 12.1187 83.8976 11.3952C83.8976 10.6716 84.0484 9.97829 84.38 9.43566C84.7116 8.89302 85.224 8.62165 85.9475 8.62165C86.7615 8.62165 87.3343 8.95328 87.6659 9.58635C87.8769 10.0084 87.9674 10.5209 87.9674 11.1539C87.9674 11.8774 87.8167 12.5105 87.5454 13.1134M88.2387 8.47095C87.6056 7.86802 86.8519 7.5665 85.9777 7.5665C84.9829 7.5665 84.169 7.89813 83.5962 8.62165C82.9933 9.31501 82.6918 10.2496 82.6918 11.3952C82.6918 12.4804 82.963 13.3546 83.5358 13.9877C84.1086 14.6208 84.8623 14.9524 85.827 14.9524C86.9725 14.9524 87.8167 14.5906 88.3594 13.8671C88.902 13.1436 89.1732 12.2091 89.1732 11.0937C89.1732 9.97826 88.8717 9.07388 88.2387 8.47095ZM90.56 14.7113H91.7357V11.0635C91.7357 10.6113 91.7658 10.2495 91.8261 10.0084C91.8864 9.76718 92.007 9.52604 92.218 9.28487C92.4592 8.98341 92.7306 8.80252 93.0622 8.71208C93.2431 8.65179 93.454 8.62165 93.7555 8.62165C94.2981 8.62165 94.69 8.83264 94.8709 9.25469C94.9915 9.52601 95.0518 9.8577 95.0518 10.2798V14.6509H96.2577V10.1893C96.2577 9.49595 96.1672 8.95329 95.9561 8.56139C95.6245 7.86802 94.9614 7.53642 93.9666 7.53642C93.5144 7.53642 93.0922 7.62685 92.7304 7.80773C92.3687 7.9886 92.007 8.29009 91.6754 8.682V7.68711H90.56V14.7113Z" fill="#4C83C3"/>
</svg>
